<?xml version="1.0" encoding="utf-8"?>
<!-- Generator: Adobe Illustrator 22.1.0, SVG Export Plug-In . SVG Version: 6.00 Build 0)  -->
<svg version="1.1" id="Layer_1" xmlns="http://www.w3.org/2000/svg" xmlns:xlink="http://www.w3.org/1999/xlink" x="0px" y="0px"
	 viewBox="0 0 400 400" style="enable-background:new 0 0 400 400;" xml:space="preserve">
<style type="text/css">
	.st0{clip-path:url(#SVGID_2_);fill:#F6CD5B;}
	.st1{clip-path:url(#SVGID_2_);fill:#FFFFFF;}
	.st2{clip-path:url(#SVGID_2_);fill:#E6E6E6;}
	.st3{clip-path:url(#SVGID_2_);fill:#414042;}
	.st4{clip-path:url(#SVGID_2_);fill:#0F0E0E;}
	.st5{clip-path:url(#SVGID_2_);fill:#F0F0F0;}
</style>
<g>
	<defs>
		<rect id="SVGID_1_" x="11" y="5.3" width="576" height="581.4"/>
	</defs>
	<clipPath id="SVGID_2_">
		<use xlink:href="#SVGID_1_"  style="overflow:visible;"/>
	</clipPath>
	<path class="st0" d="M391,195.3c0,104.9-85.1,190-190,190c-104.9,0-190-85.1-190-190s85.1-190,190-190
		C305.9,5.3,391,90.3,391,195.3"/>
	<path class="st1" d="M330.1,239.7c1.4-1.4,1.6-3.5,0.6-5.1l-30.4-49c-0.2-0.3-0.4-0.5-0.6-0.7l-43.2-43.2c-6.8-6.8-17.8-6.8-24.5,0
		c-3.7,3.7-5.4,8.7-5,13.6c-4.9-0.4-9.9,1.3-13.6,5c-3.7,3.7-5.4,8.7-5,13.5l93.9,93.9L330.1,239.7z"/>
	<path class="st2" d="M224.1,169.6c0.5-0.3,1.1-0.4,1.5-0.4c0.1,0,0.2,0,0.3,0l16.4,1.3l-1.3-16.4c0-0.6,0-1.6,0.9-2.6
		c0.8-0.8,1.7-0.9,2.3-0.9c0.6,0,1.5,0.2,2.3,0.9l42.4,42.4l25.6,41.4l-12.4,12.4L224.1,169.6z"/>
	<path class="st1" d="M208.3,173.8c0,0,0,0.1,0,0.1c-4.9-0.4-9.9,1.3-13.6,5c-2.3,2.3-3.9,5.2-4.6,8.2l-33.3-33.3
		c-6.8-6.8-17.8-6.8-24.5,0c-6.8,6.8-6.8,17.8,0,24.5l61.6,61.6h-22.4c-5.4,0-10.4,2.1-14.2,5.9c-3.8,3.8-5.9,8.8-5.9,14.2
		c0,11.1,9,20.1,20.1,20.1l71.1,0.7l31.7,11.5c1.5,0.6,3.2,0.2,4.4-1l23.7-23.7L208.3,173.8z"/>
	<path class="st3" d="M275.5,294.9L275.5,294.9c-0.8,0-1.5-0.1-2.2-0.4l-31.3-11.4l-70.7-0.7c-12.3,0-22.4-10.1-22.4-22.5
		c0-6,2.3-11.6,6.6-15.9c4.2-4.2,9.9-6.6,15.9-6.6h16.8l-57.6-57.6c-7.7-7.7-7.7-20.2,0-27.9c3.7-3.7,8.7-5.8,13.9-5.8
		c5.3,0,10.2,2,13.9,5.8l30.7,30.7c1-2,2.3-3.9,3.9-5.5c3.5-3.5,8-5.5,12.9-5.7c0.3-4.8,2.3-9.4,5.7-12.9c3.5-3.5,8-5.5,12.9-5.7
		c0.2-4.8,2.3-9.5,5.7-12.9c3.7-3.7,8.7-5.8,13.9-5.8c5.3,0,10.2,2,13.9,5.8l43.2,43.2c0.3,0.3,0.7,0.7,0.9,1.2l30.4,49
		c1.6,2.6,1.2,5.9-0.9,8L280.1,293C278.9,294.2,277.2,294.9,275.5,294.9 M171.3,242.2c-4.7,0-9.2,1.8-12.6,5.2
		c-3.4,3.4-5.2,7.8-5.2,12.6c0,9.8,7.9,17.7,17.7,17.7l71.5,0.7l32.1,11.7c0.7,0.2,1.4,0.1,1.9-0.4l51.6-51.7
		c0.6-0.6,0.7-1.5,0.3-2.2l-30.4-49c-0.1-0.1-0.2-0.2-0.3-0.3l-43.2-43.2c-2.8-2.8-6.6-4.4-10.6-4.4c-4,0-7.8,1.6-10.6,4.4
		c-3.1,3.1-4.7,7.4-4.3,11.8l0.2,2.7l-2.7-0.2c-4.4-0.3-8.7,1.2-11.8,4.3c-3.1,3.1-4.7,7.4-4.3,11.8l0.2,2.7l-2.7-0.2
		c-4.4-0.3-8.7,1.2-11.8,4.3c-2,2-3.3,4.4-4,7.1l-1,4.1l-36.3-36.3c-2.8-2.8-6.6-4.4-10.6-4.4c-4,0-7.8,1.6-10.6,4.4
		c-5.8,5.8-5.8,15.4,0,21.2l65.6,65.6H171.3z"/>
	<path class="st4" d="M129.5,184.8c-18.3,0-33.1-14.9-33.1-33.1s14.9-33.1,33.1-33.1c18.3,0,33.1,14.8,33.1,33.1
		c0,1.6-0.1,3.2-0.3,4.7l6.3,6.3c1-3.5,1.5-7.2,1.5-11.1c0-22.4-18.2-40.6-40.6-40.6c-22.4,0-40.6,18.2-40.6,40.6
		c0,22.4,18.2,40.6,40.6,40.6c3.8,0,7.5-0.5,11.1-1.5l-6.3-6.3C132.7,184.7,131.1,184.8,129.5,184.8"/>
	<path class="st5" d="M148.9,157.4c3.1,3.1,2.7,8.5-0.9,12c-3.6,3.6-8.9,3.9-12,0.9c-3.1-3.1-2.7-8.5,0.9-12
		C140.4,154.7,145.8,154.3,148.9,157.4"/>
	<path class="st5" d="M169.8,248.1c5.8,0,10.5,5.4,10.5,12.1c0,6.7-4.7,12.1-10.5,12.1c-5.8,0-10.5-5.4-10.5-12.1
		C159.3,253.5,164,248.1,169.8,248.1"/>
</g>
<g>
</g>
<g>
</g>
<g>
</g>
<g>
</g>
<g>
</g>
<g>
</g>
<g>
</g>
<g>
</g>
<g>
</g>
<g>
</g>
<g>
</g>
<g>
</g>
<g>
</g>
<g>
</g>
<g>
</g>
</svg>
